<mxfile host="app.diagrams.net" modified="2023-12-11T08:57:08.662Z" agent="Mozilla/5.0 (Windows NT 10.0; Win64; x64) AppleWebKit/537.36 (KHTML, like Gecko) Chrome/119.0.0.0 Safari/537.36" etag="CA1f7XsN5Km8q4Aa7gXz" version="22.1.7" type="device" pages="3">
  <diagram name="Situatie 1 - oud" id="2a216829-ef6e-dabb-86c1-c78162f3ba2b">
    <mxGraphModel dx="1050" dy="534" grid="1" gridSize="10" guides="1" tooltips="1" connect="1" arrows="1" fold="1" page="1" pageScale="1" pageWidth="850" pageHeight="1100" background="none" math="0" shadow="0">
      <root>
        <mxCell id="0" />
        <mxCell id="1" parent="0" />
        <mxCell id="xwGywRHYAjDhotxfbsMf-3" style="edgeStyle=orthogonalEdgeStyle;rounded=0;orthogonalLoop=1;jettySize=auto;html=1;" parent="1" source="xwGywRHYAjDhotxfbsMf-1" target="xwGywRHYAjDhotxfbsMf-2" edge="1">
          <mxGeometry relative="1" as="geometry" />
        </mxCell>
        <mxCell id="xwGywRHYAjDhotxfbsMf-1" value="Start" style="strokeWidth=2;html=1;shape=mxgraph.flowchart.start_1;whiteSpace=wrap;" parent="1" vertex="1">
          <mxGeometry x="250" y="20" width="100" height="60" as="geometry" />
        </mxCell>
        <mxCell id="xwGywRHYAjDhotxfbsMf-17" style="edgeStyle=orthogonalEdgeStyle;rounded=0;orthogonalLoop=1;jettySize=auto;html=1;entryX=0.5;entryY=0;entryDx=0;entryDy=0;" parent="1" source="xwGywRHYAjDhotxfbsMf-2" target="xwGywRHYAjDhotxfbsMf-16" edge="1">
          <mxGeometry relative="1" as="geometry" />
        </mxCell>
        <mxCell id="xwGywRHYAjDhotxfbsMf-2" value="Zoekt collega" style="rounded=1;whiteSpace=wrap;html=1;absoluteArcSize=1;arcSize=14;strokeWidth=2;" parent="1" vertex="1">
          <mxGeometry x="250" y="120" width="100" height="100" as="geometry" />
        </mxCell>
        <mxCell id="xwGywRHYAjDhotxfbsMf-8" style="edgeStyle=orthogonalEdgeStyle;rounded=0;orthogonalLoop=1;jettySize=auto;html=1;" parent="1" source="xwGywRHYAjDhotxfbsMf-5" target="xwGywRHYAjDhotxfbsMf-7" edge="1">
          <mxGeometry relative="1" as="geometry">
            <Array as="points">
              <mxPoint x="200" y="470" />
              <mxPoint x="200" y="470" />
            </Array>
          </mxGeometry>
        </mxCell>
        <mxCell id="xwGywRHYAjDhotxfbsMf-9" value="NEE" style="edgeLabel;html=1;align=center;verticalAlign=middle;resizable=0;points=[];" parent="xwGywRHYAjDhotxfbsMf-8" vertex="1" connectable="0">
          <mxGeometry x="-0.1934" relative="1" as="geometry">
            <mxPoint as="offset" />
          </mxGeometry>
        </mxCell>
        <mxCell id="xwGywRHYAjDhotxfbsMf-12" style="edgeStyle=orthogonalEdgeStyle;rounded=0;orthogonalLoop=1;jettySize=auto;html=1;" parent="1" source="xwGywRHYAjDhotxfbsMf-5" target="xwGywRHYAjDhotxfbsMf-11" edge="1">
          <mxGeometry relative="1" as="geometry" />
        </mxCell>
        <mxCell id="xwGywRHYAjDhotxfbsMf-13" value="JA" style="edgeLabel;html=1;align=center;verticalAlign=middle;resizable=0;points=[];" parent="xwGywRHYAjDhotxfbsMf-12" vertex="1" connectable="0">
          <mxGeometry x="0.2624" y="-1" relative="1" as="geometry">
            <mxPoint x="-19" y="-1" as="offset" />
          </mxGeometry>
        </mxCell>
        <mxCell id="xwGywRHYAjDhotxfbsMf-5" value="Gevonden?" style="strokeWidth=2;html=1;shape=mxgraph.flowchart.decision;whiteSpace=wrap;" parent="1" vertex="1">
          <mxGeometry x="245" y="420" width="110" height="100" as="geometry" />
        </mxCell>
        <mxCell id="xwGywRHYAjDhotxfbsMf-10" style="edgeStyle=orthogonalEdgeStyle;rounded=0;orthogonalLoop=1;jettySize=auto;html=1;exitX=0.5;exitY=0;exitDx=0;exitDy=0;" parent="1" source="xwGywRHYAjDhotxfbsMf-7" target="xpIAppJbxH9Ay3X56PQv-1" edge="1">
          <mxGeometry relative="1" as="geometry" />
        </mxCell>
        <mxCell id="xwGywRHYAjDhotxfbsMf-7" value="Ga naar volgende verdieping/locatie" style="rounded=1;whiteSpace=wrap;html=1;absoluteArcSize=1;arcSize=14;strokeWidth=2;" parent="1" vertex="1">
          <mxGeometry x="70" y="420" width="100" height="100" as="geometry" />
        </mxCell>
        <mxCell id="xpIAppJbxH9Ay3X56PQv-5" style="edgeStyle=orthogonalEdgeStyle;rounded=0;orthogonalLoop=1;jettySize=auto;html=1;" parent="1" source="xwGywRHYAjDhotxfbsMf-11" target="xpIAppJbxH9Ay3X56PQv-4" edge="1">
          <mxGeometry relative="1" as="geometry" />
        </mxCell>
        <mxCell id="xwGywRHYAjDhotxfbsMf-11" value="Contact leggen met collega" style="rounded=1;whiteSpace=wrap;html=1;absoluteArcSize=1;arcSize=14;strokeWidth=2;" parent="1" vertex="1">
          <mxGeometry x="430" y="420" width="100" height="100" as="geometry" />
        </mxCell>
        <mxCell id="xwGywRHYAjDhotxfbsMf-14" value="Finish" style="strokeWidth=2;html=1;shape=mxgraph.flowchart.start_1;whiteSpace=wrap;" parent="1" vertex="1">
          <mxGeometry x="760" y="440" width="100" height="60" as="geometry" />
        </mxCell>
        <mxCell id="xwGywRHYAjDhotxfbsMf-18" style="edgeStyle=orthogonalEdgeStyle;rounded=0;orthogonalLoop=1;jettySize=auto;html=1;" parent="1" source="xwGywRHYAjDhotxfbsMf-16" target="xwGywRHYAjDhotxfbsMf-5" edge="1">
          <mxGeometry relative="1" as="geometry" />
        </mxCell>
        <mxCell id="xwGywRHYAjDhotxfbsMf-16" value="Locatie gokken/schatten" style="rounded=1;whiteSpace=wrap;html=1;absoluteArcSize=1;arcSize=14;strokeWidth=2;" parent="1" vertex="1">
          <mxGeometry x="250" y="270" width="100" height="100" as="geometry" />
        </mxCell>
        <mxCell id="xpIAppJbxH9Ay3X56PQv-2" value="" style="edgeStyle=orthogonalEdgeStyle;rounded=0;orthogonalLoop=1;jettySize=auto;html=1;" parent="1" source="xpIAppJbxH9Ay3X56PQv-1" target="xwGywRHYAjDhotxfbsMf-16" edge="1">
          <mxGeometry relative="1" as="geometry" />
        </mxCell>
        <mxCell id="xpIAppJbxH9Ay3X56PQv-1" value="Checken of collega op kantoor is" style="rounded=1;whiteSpace=wrap;html=1;absoluteArcSize=1;arcSize=14;strokeWidth=2;" parent="1" vertex="1">
          <mxGeometry x="70" y="270" width="100" height="100" as="geometry" />
        </mxCell>
        <mxCell id="xpIAppJbxH9Ay3X56PQv-6" style="edgeStyle=orthogonalEdgeStyle;rounded=0;orthogonalLoop=1;jettySize=auto;html=1;" parent="1" source="xpIAppJbxH9Ay3X56PQv-4" target="xwGywRHYAjDhotxfbsMf-14" edge="1">
          <mxGeometry relative="1" as="geometry" />
        </mxCell>
        <mxCell id="xpIAppJbxH9Ay3X56PQv-7" value="Ja" style="edgeLabel;html=1;align=center;verticalAlign=middle;resizable=0;points=[];" parent="xpIAppJbxH9Ay3X56PQv-6" vertex="1" connectable="0">
          <mxGeometry x="0.072" relative="1" as="geometry">
            <mxPoint as="offset" />
          </mxGeometry>
        </mxCell>
        <mxCell id="xpIAppJbxH9Ay3X56PQv-4" value="Is collega beschikbaar?" style="strokeWidth=2;html=1;shape=mxgraph.flowchart.decision;whiteSpace=wrap;" parent="1" vertex="1">
          <mxGeometry x="600" y="420" width="100" height="100" as="geometry" />
        </mxCell>
        <mxCell id="xpIAppJbxH9Ay3X56PQv-11" style="edgeStyle=orthogonalEdgeStyle;rounded=0;orthogonalLoop=1;jettySize=auto;html=1;entryX=1;entryY=0.5;entryDx=0;entryDy=0;exitX=0.5;exitY=0;exitDx=0;exitDy=0;" parent="1" source="xpIAppJbxH9Ay3X56PQv-8" target="xwGywRHYAjDhotxfbsMf-2" edge="1">
          <mxGeometry relative="1" as="geometry" />
        </mxCell>
        <mxCell id="xpIAppJbxH9Ay3X56PQv-8" value="Terug naar je plek en wachten" style="rounded=1;whiteSpace=wrap;html=1;absoluteArcSize=1;arcSize=14;strokeWidth=2;" parent="1" vertex="1">
          <mxGeometry x="600" y="270" width="100" height="100" as="geometry" />
        </mxCell>
        <mxCell id="xpIAppJbxH9Ay3X56PQv-9" value="" style="edgeStyle=orthogonalEdgeStyle;rounded=0;orthogonalLoop=1;jettySize=auto;html=1;" parent="1" source="xpIAppJbxH9Ay3X56PQv-4" target="xpIAppJbxH9Ay3X56PQv-8" edge="1">
          <mxGeometry relative="1" as="geometry" />
        </mxCell>
        <mxCell id="xpIAppJbxH9Ay3X56PQv-14" value="NEE" style="edgeLabel;html=1;align=center;verticalAlign=middle;resizable=0;points=[];" parent="xpIAppJbxH9Ay3X56PQv-9" vertex="1" connectable="0">
          <mxGeometry x="0.072" y="-1" relative="1" as="geometry">
            <mxPoint x="-1" y="7" as="offset" />
          </mxGeometry>
        </mxCell>
      </root>
    </mxGraphModel>
  </diagram>
  <diagram name="Situatie 2 - nieuw" id="lkB0_ghAfuBf226spu91">
    <mxGraphModel dx="1050" dy="534" grid="1" gridSize="10" guides="1" tooltips="1" connect="1" arrows="1" fold="1" page="1" pageScale="1" pageWidth="850" pageHeight="1100" background="none" math="0" shadow="0">
      <root>
        <mxCell id="GSJKkMo4Q_cXZP4YSn3R-0" />
        <mxCell id="GSJKkMo4Q_cXZP4YSn3R-1" parent="GSJKkMo4Q_cXZP4YSn3R-0" />
        <mxCell id="Z38Z3TI4hRYLc-ftI2Iu-0" style="edgeStyle=orthogonalEdgeStyle;rounded=0;orthogonalLoop=1;jettySize=auto;html=1;" edge="1" parent="GSJKkMo4Q_cXZP4YSn3R-1" source="Z38Z3TI4hRYLc-ftI2Iu-1" target="Z38Z3TI4hRYLc-ftI2Iu-3">
          <mxGeometry relative="1" as="geometry" />
        </mxCell>
        <mxCell id="Z38Z3TI4hRYLc-ftI2Iu-1" value="Start" style="strokeWidth=2;html=1;shape=mxgraph.flowchart.start_1;whiteSpace=wrap;" vertex="1" parent="GSJKkMo4Q_cXZP4YSn3R-1">
          <mxGeometry x="250" y="20" width="100" height="60" as="geometry" />
        </mxCell>
        <mxCell id="Z38Z3TI4hRYLc-ftI2Iu-2" style="edgeStyle=orthogonalEdgeStyle;rounded=0;orthogonalLoop=1;jettySize=auto;html=1;entryX=0.5;entryY=0;entryDx=0;entryDy=0;" edge="1" parent="GSJKkMo4Q_cXZP4YSn3R-1" source="Z38Z3TI4hRYLc-ftI2Iu-3" target="Z38Z3TI4hRYLc-ftI2Iu-15">
          <mxGeometry relative="1" as="geometry" />
        </mxCell>
        <mxCell id="Z38Z3TI4hRYLc-ftI2Iu-3" value="Zoekt collega" style="rounded=1;whiteSpace=wrap;html=1;absoluteArcSize=1;arcSize=14;strokeWidth=2;" vertex="1" parent="GSJKkMo4Q_cXZP4YSn3R-1">
          <mxGeometry x="250" y="120" width="100" height="100" as="geometry" />
        </mxCell>
        <mxCell id="Z38Z3TI4hRYLc-ftI2Iu-25" style="edgeStyle=orthogonalEdgeStyle;rounded=0;orthogonalLoop=1;jettySize=auto;html=1;" edge="1" parent="GSJKkMo4Q_cXZP4YSn3R-1" source="Z38Z3TI4hRYLc-ftI2Iu-12" target="Z38Z3TI4hRYLc-ftI2Iu-13">
          <mxGeometry relative="1" as="geometry" />
        </mxCell>
        <mxCell id="Z38Z3TI4hRYLc-ftI2Iu-12" value="Contact leggen met collega" style="rounded=1;whiteSpace=wrap;html=1;absoluteArcSize=1;arcSize=14;strokeWidth=2;" vertex="1" parent="GSJKkMo4Q_cXZP4YSn3R-1">
          <mxGeometry x="570" y="120" width="100" height="100" as="geometry" />
        </mxCell>
        <mxCell id="Z38Z3TI4hRYLc-ftI2Iu-13" value="Finish" style="strokeWidth=2;html=1;shape=mxgraph.flowchart.start_1;whiteSpace=wrap;" vertex="1" parent="GSJKkMo4Q_cXZP4YSn3R-1">
          <mxGeometry x="410" y="140" width="100" height="60" as="geometry" />
        </mxCell>
        <mxCell id="Z38Z3TI4hRYLc-ftI2Iu-15" value="Open app en zoek collega" style="rounded=1;whiteSpace=wrap;html=1;absoluteArcSize=1;arcSize=14;strokeWidth=2;" vertex="1" parent="GSJKkMo4Q_cXZP4YSn3R-1">
          <mxGeometry x="250" y="270" width="100" height="100" as="geometry" />
        </mxCell>
        <mxCell id="Z38Z3TI4hRYLc-ftI2Iu-30" style="edgeStyle=orthogonalEdgeStyle;rounded=0;orthogonalLoop=1;jettySize=auto;html=1;" edge="1" parent="GSJKkMo4Q_cXZP4YSn3R-1" source="Z38Z3TI4hRYLc-ftI2Iu-26" target="Z38Z3TI4hRYLc-ftI2Iu-29">
          <mxGeometry relative="1" as="geometry" />
        </mxCell>
        <mxCell id="Z38Z3TI4hRYLc-ftI2Iu-26" value="Check welke verdieping collega op aanwezig is" style="rounded=1;whiteSpace=wrap;html=1;absoluteArcSize=1;arcSize=14;strokeWidth=2;" vertex="1" parent="GSJKkMo4Q_cXZP4YSn3R-1">
          <mxGeometry x="570" y="420" width="100" height="100" as="geometry" />
        </mxCell>
        <mxCell id="Z38Z3TI4hRYLc-ftI2Iu-31" style="edgeStyle=orthogonalEdgeStyle;rounded=0;orthogonalLoop=1;jettySize=auto;html=1;" edge="1" parent="GSJKkMo4Q_cXZP4YSn3R-1" source="Z38Z3TI4hRYLc-ftI2Iu-29" target="Z38Z3TI4hRYLc-ftI2Iu-12">
          <mxGeometry relative="1" as="geometry" />
        </mxCell>
        <mxCell id="Z38Z3TI4hRYLc-ftI2Iu-32" value="JA" style="edgeLabel;html=1;align=center;verticalAlign=middle;resizable=0;points=[];" vertex="1" connectable="0" parent="Z38Z3TI4hRYLc-ftI2Iu-31">
          <mxGeometry x="-0.408" y="-2" relative="1" as="geometry">
            <mxPoint as="offset" />
          </mxGeometry>
        </mxCell>
        <mxCell id="Z38Z3TI4hRYLc-ftI2Iu-29" value="Collega gevonden?" style="strokeWidth=2;html=1;shape=mxgraph.flowchart.decision;whiteSpace=wrap;" vertex="1" parent="GSJKkMo4Q_cXZP4YSn3R-1">
          <mxGeometry x="569.9999999999999" y="270" width="100" height="100" as="geometry" />
        </mxCell>
        <mxCell id="bn5FuSh2Axg3X8cKw0rb-0" style="edgeStyle=orthogonalEdgeStyle;rounded=0;orthogonalLoop=1;jettySize=auto;html=1;" edge="1" parent="GSJKkMo4Q_cXZP4YSn3R-1" source="Z38Z3TI4hRYLc-ftI2Iu-33" target="05rKGyeGxS1kItpJD9v8-10">
          <mxGeometry relative="1" as="geometry">
            <mxPoint x="433.25" y="665" as="targetPoint" />
          </mxGeometry>
        </mxCell>
        <mxCell id="Z38Z3TI4hRYLc-ftI2Iu-33" value="Controleer status op app" style="rounded=1;whiteSpace=wrap;html=1;absoluteArcSize=1;arcSize=14;strokeWidth=2;" vertex="1" parent="GSJKkMo4Q_cXZP4YSn3R-1">
          <mxGeometry x="410" y="270" width="100" height="100" as="geometry" />
        </mxCell>
        <mxCell id="Z38Z3TI4hRYLc-ftI2Iu-34" value="" style="edgeStyle=orthogonalEdgeStyle;rounded=0;orthogonalLoop=1;jettySize=auto;html=1;" edge="1" parent="GSJKkMo4Q_cXZP4YSn3R-1" source="Z38Z3TI4hRYLc-ftI2Iu-29" target="Z38Z3TI4hRYLc-ftI2Iu-33">
          <mxGeometry relative="1" as="geometry">
            <Array as="points">
              <mxPoint x="570" y="320" />
              <mxPoint x="570" y="320" />
            </Array>
          </mxGeometry>
        </mxCell>
        <mxCell id="Z38Z3TI4hRYLc-ftI2Iu-35" value="NEE" style="edgeLabel;html=1;align=center;verticalAlign=middle;resizable=0;points=[];" vertex="1" connectable="0" parent="Z38Z3TI4hRYLc-ftI2Iu-34">
          <mxGeometry x="0.2" y="4" relative="1" as="geometry">
            <mxPoint x="16" y="-4" as="offset" />
          </mxGeometry>
        </mxCell>
        <mxCell id="05rKGyeGxS1kItpJD9v8-4" value="" style="edgeStyle=orthogonalEdgeStyle;rounded=0;orthogonalLoop=1;jettySize=auto;html=1;" edge="1" parent="GSJKkMo4Q_cXZP4YSn3R-1" source="05rKGyeGxS1kItpJD9v8-1" target="05rKGyeGxS1kItpJD9v8-3">
          <mxGeometry relative="1" as="geometry" />
        </mxCell>
        <mxCell id="05rKGyeGxS1kItpJD9v8-9" value="NEE" style="edgeLabel;html=1;align=center;verticalAlign=middle;resizable=0;points=[];" vertex="1" connectable="0" parent="05rKGyeGxS1kItpJD9v8-4">
          <mxGeometry x="0.3395" y="1" relative="1" as="geometry">
            <mxPoint x="7" y="-1" as="offset" />
          </mxGeometry>
        </mxCell>
        <mxCell id="05rKGyeGxS1kItpJD9v8-1" value="Is collega aanwezig?" style="strokeWidth=2;html=1;shape=mxgraph.flowchart.decision;whiteSpace=wrap;" vertex="1" parent="GSJKkMo4Q_cXZP4YSn3R-1">
          <mxGeometry x="250" y="420" width="100" height="100" as="geometry" />
        </mxCell>
        <mxCell id="05rKGyeGxS1kItpJD9v8-2" style="edgeStyle=orthogonalEdgeStyle;rounded=0;orthogonalLoop=1;jettySize=auto;html=1;entryX=0.5;entryY=0;entryDx=0;entryDy=0;entryPerimeter=0;" edge="1" parent="GSJKkMo4Q_cXZP4YSn3R-1" source="Z38Z3TI4hRYLc-ftI2Iu-15" target="05rKGyeGxS1kItpJD9v8-1">
          <mxGeometry relative="1" as="geometry" />
        </mxCell>
        <mxCell id="05rKGyeGxS1kItpJD9v8-3" value="Verder met de werkdag" style="rounded=1;whiteSpace=wrap;html=1;absoluteArcSize=1;arcSize=14;strokeWidth=2;" vertex="1" parent="GSJKkMo4Q_cXZP4YSn3R-1">
          <mxGeometry x="250" y="570" width="100" height="100" as="geometry" />
        </mxCell>
        <mxCell id="05rKGyeGxS1kItpJD9v8-8" style="edgeStyle=orthogonalEdgeStyle;rounded=0;orthogonalLoop=1;jettySize=auto;html=1;exitX=0.5;exitY=1;exitDx=0;exitDy=0;exitPerimeter=0;" edge="1" parent="GSJKkMo4Q_cXZP4YSn3R-1" source="05rKGyeGxS1kItpJD9v8-1" target="05rKGyeGxS1kItpJD9v8-1">
          <mxGeometry relative="1" as="geometry" />
        </mxCell>
        <mxCell id="05rKGyeGxS1kItpJD9v8-15" style="edgeStyle=orthogonalEdgeStyle;rounded=0;orthogonalLoop=1;jettySize=auto;html=1;" edge="1" parent="GSJKkMo4Q_cXZP4YSn3R-1" source="05rKGyeGxS1kItpJD9v8-10" target="05rKGyeGxS1kItpJD9v8-14">
          <mxGeometry relative="1" as="geometry" />
        </mxCell>
        <mxCell id="05rKGyeGxS1kItpJD9v8-16" value="NEE" style="edgeLabel;html=1;align=center;verticalAlign=middle;resizable=0;points=[];" vertex="1" connectable="0" parent="05rKGyeGxS1kItpJD9v8-15">
          <mxGeometry x="-0.279" y="1" relative="1" as="geometry">
            <mxPoint x="-1" as="offset" />
          </mxGeometry>
        </mxCell>
        <mxCell id="05rKGyeGxS1kItpJD9v8-18" style="edgeStyle=orthogonalEdgeStyle;rounded=0;orthogonalLoop=1;jettySize=auto;html=1;" edge="1" parent="GSJKkMo4Q_cXZP4YSn3R-1" source="05rKGyeGxS1kItpJD9v8-10" target="Z38Z3TI4hRYLc-ftI2Iu-26">
          <mxGeometry relative="1" as="geometry" />
        </mxCell>
        <mxCell id="05rKGyeGxS1kItpJD9v8-19" value="JA" style="edgeLabel;html=1;align=center;verticalAlign=middle;resizable=0;points=[];" vertex="1" connectable="0" parent="05rKGyeGxS1kItpJD9v8-18">
          <mxGeometry x="-0.251" y="1" relative="1" as="geometry">
            <mxPoint as="offset" />
          </mxGeometry>
        </mxCell>
        <mxCell id="05rKGyeGxS1kItpJD9v8-10" value="Is beschikbaar?" style="strokeWidth=2;html=1;shape=mxgraph.flowchart.decision;whiteSpace=wrap;" vertex="1" parent="GSJKkMo4Q_cXZP4YSn3R-1">
          <mxGeometry x="410" y="420" width="100" height="100" as="geometry" />
        </mxCell>
        <mxCell id="05rKGyeGxS1kItpJD9v8-11" value="" style="edgeStyle=orthogonalEdgeStyle;rounded=0;orthogonalLoop=1;jettySize=auto;html=1;" edge="1" parent="GSJKkMo4Q_cXZP4YSn3R-1" source="05rKGyeGxS1kItpJD9v8-1" target="05rKGyeGxS1kItpJD9v8-10">
          <mxGeometry relative="1" as="geometry" />
        </mxCell>
        <mxCell id="05rKGyeGxS1kItpJD9v8-12" value="JA" style="edgeLabel;html=1;align=center;verticalAlign=middle;resizable=0;points=[];" vertex="1" connectable="0" parent="05rKGyeGxS1kItpJD9v8-11">
          <mxGeometry x="-0.184" y="1" relative="1" as="geometry">
            <mxPoint x="-1" as="offset" />
          </mxGeometry>
        </mxCell>
        <mxCell id="05rKGyeGxS1kItpJD9v8-14" value="Verder met werkdag, wacht tot collega beschikbaar is" style="rounded=1;whiteSpace=wrap;html=1;absoluteArcSize=1;arcSize=14;strokeWidth=2;" vertex="1" parent="GSJKkMo4Q_cXZP4YSn3R-1">
          <mxGeometry x="410" y="570" width="100" height="100" as="geometry" />
        </mxCell>
        <mxCell id="05rKGyeGxS1kItpJD9v8-17" style="edgeStyle=orthogonalEdgeStyle;rounded=0;orthogonalLoop=1;jettySize=auto;html=1;exitX=0;exitY=0.75;exitDx=0;exitDy=0;entryX=0;entryY=0.5;entryDx=0;entryDy=0;entryPerimeter=0;" edge="1" parent="GSJKkMo4Q_cXZP4YSn3R-1" source="05rKGyeGxS1kItpJD9v8-14" target="05rKGyeGxS1kItpJD9v8-10">
          <mxGeometry relative="1" as="geometry">
            <mxPoint x="390" y="470" as="targetPoint" />
          </mxGeometry>
        </mxCell>
      </root>
    </mxGraphModel>
  </diagram>
  <diagram id="n-0K_dd2mOLsIMUQv2rY" name="BPMN">
    <mxGraphModel dx="1050" dy="534" grid="1" gridSize="10" guides="1" tooltips="1" connect="1" arrows="1" fold="1" page="1" pageScale="1" pageWidth="1169" pageHeight="827" math="0" shadow="0">
      <root>
        <mxCell id="0" />
        <mxCell id="1" parent="0" />
      </root>
    </mxGraphModel>
  </diagram>
</mxfile>
